<?xml version="1.0" encoding="utf-8"?>
<svg version="1.1" baseProfile="full"  width="660" height="660" viewBox="0 0 660 660"
		 xmlns="http://www.w3.org/2000/svg" xmlns:xlink="http://www.w3.org/1999/xlink" xmlns:ev="http://www.w3.org/2001/xml-events">
<desc></desc>
<rect width="660" height="660" fill="#ffffff" cx="0" cy="0" />
<defs>
<rect id="p" width="20" height="20" />
</defs>
<g fill="#000000">
<use x="40" y="40" xlink:href="#p" />
<use x="40" y="60" xlink:href="#p" />
<use x="40" y="80" xlink:href="#p" />
<use x="40" y="100" xlink:href="#p" />
<use x="40" y="120" xlink:href="#p" />
<use x="40" y="140" xlink:href="#p" />
<use x="40" y="160" xlink:href="#p" />
<use x="40" y="200" xlink:href="#p" />
<use x="40" y="220" xlink:href="#p" />
<use x="40" y="240" xlink:href="#p" />
<use x="40" y="260" xlink:href="#p" />
<use x="40" y="300" xlink:href="#p" />
<use x="40" y="320" xlink:href="#p" />
<use x="40" y="360" xlink:href="#p" />
<use x="40" y="480" xlink:href="#p" />
<use x="40" y="500" xlink:href="#p" />
<use x="40" y="520" xlink:href="#p" />
<use x="40" y="540" xlink:href="#p" />
<use x="40" y="560" xlink:href="#p" />
<use x="40" y="580" xlink:href="#p" />
<use x="40" y="600" xlink:href="#p" />
<use x="60" y="40" xlink:href="#p" />
<use x="60" y="160" xlink:href="#p" />
<use x="60" y="200" xlink:href="#p" />
<use x="60" y="220" xlink:href="#p" />
<use x="60" y="240" xlink:href="#p" />
<use x="60" y="260" xlink:href="#p" />
<use x="60" y="280" xlink:href="#p" />
<use x="60" y="320" xlink:href="#p" />
<use x="60" y="360" xlink:href="#p" />
<use x="60" y="420" xlink:href="#p" />
<use x="60" y="440" xlink:href="#p" />
<use x="60" y="480" xlink:href="#p" />
<use x="60" y="600" xlink:href="#p" />
<use x="80" y="40" xlink:href="#p" />
<use x="80" y="80" xlink:href="#p" />
<use x="80" y="100" xlink:href="#p" />
<use x="80" y="120" xlink:href="#p" />
<use x="80" y="160" xlink:href="#p" />
<use x="80" y="220" xlink:href="#p" />
<use x="80" y="240" xlink:href="#p" />
<use x="80" y="280" xlink:href="#p" />
<use x="80" y="320" xlink:href="#p" />
<use x="80" y="340" xlink:href="#p" />
<use x="80" y="360" xlink:href="#p" />
<use x="80" y="400" xlink:href="#p" />
<use x="80" y="440" xlink:href="#p" />
<use x="80" y="480" xlink:href="#p" />
<use x="80" y="520" xlink:href="#p" />
<use x="80" y="540" xlink:href="#p" />
<use x="80" y="560" xlink:href="#p" />
<use x="80" y="600" xlink:href="#p" />
<use x="100" y="40" xlink:href="#p" />
<use x="100" y="80" xlink:href="#p" />
<use x="100" y="100" xlink:href="#p" />
<use x="100" y="120" xlink:href="#p" />
<use x="100" y="160" xlink:href="#p" />
<use x="100" y="240" xlink:href="#p" />
<use x="100" y="280" xlink:href="#p" />
<use x="100" y="320" xlink:href="#p" />
<use x="100" y="400" xlink:href="#p" />
<use x="100" y="440" xlink:href="#p" />
<use x="100" y="480" xlink:href="#p" />
<use x="100" y="520" xlink:href="#p" />
<use x="100" y="540" xlink:href="#p" />
<use x="100" y="560" xlink:href="#p" />
<use x="100" y="600" xlink:href="#p" />
<use x="120" y="40" xlink:href="#p" />
<use x="120" y="80" xlink:href="#p" />
<use x="120" y="100" xlink:href="#p" />
<use x="120" y="120" xlink:href="#p" />
<use x="120" y="160" xlink:href="#p" />
<use x="120" y="220" xlink:href="#p" />
<use x="120" y="240" xlink:href="#p" />
<use x="120" y="260" xlink:href="#p" />
<use x="120" y="320" xlink:href="#p" />
<use x="120" y="360" xlink:href="#p" />
<use x="120" y="480" xlink:href="#p" />
<use x="120" y="520" xlink:href="#p" />
<use x="120" y="540" xlink:href="#p" />
<use x="120" y="560" xlink:href="#p" />
<use x="120" y="600" xlink:href="#p" />
<use x="140" y="40" xlink:href="#p" />
<use x="140" y="160" xlink:href="#p" />
<use x="140" y="200" xlink:href="#p" />
<use x="140" y="220" xlink:href="#p" />
<use x="140" y="240" xlink:href="#p" />
<use x="140" y="300" xlink:href="#p" />
<use x="140" y="360" xlink:href="#p" />
<use x="140" y="480" xlink:href="#p" />
<use x="140" y="600" xlink:href="#p" />
<use x="160" y="40" xlink:href="#p" />
<use x="160" y="60" xlink:href="#p" />
<use x="160" y="80" xlink:href="#p" />
<use x="160" y="100" xlink:href="#p" />
<use x="160" y="120" xlink:href="#p" />
<use x="160" y="140" xlink:href="#p" />
<use x="160" y="160" xlink:href="#p" />
<use x="160" y="200" xlink:href="#p" />
<use x="160" y="240" xlink:href="#p" />
<use x="160" y="280" xlink:href="#p" />
<use x="160" y="320" xlink:href="#p" />
<use x="160" y="360" xlink:href="#p" />
<use x="160" y="400" xlink:href="#p" />
<use x="160" y="440" xlink:href="#p" />
<use x="160" y="480" xlink:href="#p" />
<use x="160" y="500" xlink:href="#p" />
<use x="160" y="520" xlink:href="#p" />
<use x="160" y="540" xlink:href="#p" />
<use x="160" y="560" xlink:href="#p" />
<use x="160" y="580" xlink:href="#p" />
<use x="160" y="600" xlink:href="#p" />
<use x="180" y="200" xlink:href="#p" />
<use x="180" y="220" xlink:href="#p" />
<use x="180" y="300" xlink:href="#p" />
<use x="180" y="340" xlink:href="#p" />
<use x="180" y="360" xlink:href="#p" />
<use x="180" y="380" xlink:href="#p" />
<use x="180" y="400" xlink:href="#p" />
<use x="200" y="100" xlink:href="#p" />
<use x="200" y="120" xlink:href="#p" />
<use x="200" y="160" xlink:href="#p" />
<use x="200" y="280" xlink:href="#p" />
<use x="200" y="320" xlink:href="#p" />
<use x="200" y="340" xlink:href="#p" />
<use x="200" y="380" xlink:href="#p" />
<use x="200" y="440" xlink:href="#p" />
<use x="200" y="460" xlink:href="#p" />
<use x="200" y="480" xlink:href="#p" />
<use x="200" y="500" xlink:href="#p" />
<use x="200" y="580" xlink:href="#p" />
<use x="200" y="600" xlink:href="#p" />
<use x="220" y="40" xlink:href="#p" />
<use x="220" y="80" xlink:href="#p" />
<use x="220" y="140" xlink:href="#p" />
<use x="220" y="180" xlink:href="#p" />
<use x="220" y="200" xlink:href="#p" />
<use x="220" y="240" xlink:href="#p" />
<use x="220" y="280" xlink:href="#p" />
<use x="220" y="340" xlink:href="#p" />
<use x="220" y="380" xlink:href="#p" />
<use x="220" y="440" xlink:href="#p" />
<use x="220" y="480" xlink:href="#p" />
<use x="220" y="560" xlink:href="#p" />
<use x="240" y="40" xlink:href="#p" />
<use x="240" y="80" xlink:href="#p" />
<use x="240" y="100" xlink:href="#p" />
<use x="240" y="120" xlink:href="#p" />
<use x="240" y="140" xlink:href="#p" />
<use x="240" y="160" xlink:href="#p" />
<use x="240" y="200" xlink:href="#p" />
<use x="240" y="220" xlink:href="#p" />
<use x="240" y="260" xlink:href="#p" />
<use x="240" y="280" xlink:href="#p" />
<use x="240" y="300" xlink:href="#p" />
<use x="240" y="340" xlink:href="#p" />
<use x="240" y="400" xlink:href="#p" />
<use x="240" y="440" xlink:href="#p" />
<use x="240" y="460" xlink:href="#p" />
<use x="240" y="520" xlink:href="#p" />
<use x="240" y="540" xlink:href="#p" />
<use x="240" y="560" xlink:href="#p" />
<use x="260" y="40" xlink:href="#p" />
<use x="260" y="60" xlink:href="#p" />
<use x="260" y="80" xlink:href="#p" />
<use x="260" y="100" xlink:href="#p" />
<use x="260" y="240" xlink:href="#p" />
<use x="260" y="260" xlink:href="#p" />
<use x="260" y="420" xlink:href="#p" />
<use x="260" y="440" xlink:href="#p" />
<use x="260" y="520" xlink:href="#p" />
<use x="260" y="560" xlink:href="#p" />
<use x="260" y="580" xlink:href="#p" />
<use x="260" y="600" xlink:href="#p" />
<use x="280" y="60" xlink:href="#p" />
<use x="280" y="120" xlink:href="#p" />
<use x="280" y="160" xlink:href="#p" />
<use x="280" y="180" xlink:href="#p" />
<use x="280" y="200" xlink:href="#p" />
<use x="280" y="240" xlink:href="#p" />
<use x="280" y="300" xlink:href="#p" />
<use x="280" y="340" xlink:href="#p" />
<use x="280" y="360" xlink:href="#p" />
<use x="280" y="400" xlink:href="#p" />
<use x="280" y="460" xlink:href="#p" />
<use x="280" y="500" xlink:href="#p" />
<use x="280" y="520" xlink:href="#p" />
<use x="280" y="560" xlink:href="#p" />
<use x="300" y="40" xlink:href="#p" />
<use x="300" y="100" xlink:href="#p" />
<use x="300" y="200" xlink:href="#p" />
<use x="300" y="360" xlink:href="#p" />
<use x="300" y="460" xlink:href="#p" />
<use x="300" y="480" xlink:href="#p" />
<use x="300" y="500" xlink:href="#p" />
<use x="300" y="520" xlink:href="#p" />
<use x="320" y="40" xlink:href="#p" />
<use x="320" y="60" xlink:href="#p" />
<use x="320" y="80" xlink:href="#p" />
<use x="320" y="160" xlink:href="#p" />
<use x="320" y="180" xlink:href="#p" />
<use x="320" y="200" xlink:href="#p" />
<use x="320" y="220" xlink:href="#p" />
<use x="320" y="240" xlink:href="#p" />
<use x="320" y="320" xlink:href="#p" />
<use x="320" y="360" xlink:href="#p" />
<use x="320" y="380" xlink:href="#p" />
<use x="320" y="400" xlink:href="#p" />
<use x="320" y="460" xlink:href="#p" />
<use x="320" y="480" xlink:href="#p" />
<use x="340" y="220" xlink:href="#p" />
<use x="340" y="240" xlink:href="#p" />
<use x="340" y="280" xlink:href="#p" />
<use x="340" y="300" xlink:href="#p" />
<use x="340" y="320" xlink:href="#p" />
<use x="340" y="360" xlink:href="#p" />
<use x="340" y="380" xlink:href="#p" />
<use x="340" y="400" xlink:href="#p" />
<use x="340" y="420" xlink:href="#p" />
<use x="340" y="460" xlink:href="#p" />
<use x="340" y="480" xlink:href="#p" />
<use x="340" y="500" xlink:href="#p" />
<use x="340" y="520" xlink:href="#p" />
<use x="340" y="540" xlink:href="#p" />
<use x="340" y="560" xlink:href="#p" />
<use x="340" y="580" xlink:href="#p" />
<use x="340" y="600" xlink:href="#p" />
<use x="360" y="120" xlink:href="#p" />
<use x="360" y="140" xlink:href="#p" />
<use x="360" y="160" xlink:href="#p" />
<use x="360" y="180" xlink:href="#p" />
<use x="360" y="220" xlink:href="#p" />
<use x="360" y="240" xlink:href="#p" />
<use x="360" y="260" xlink:href="#p" />
<use x="360" y="280" xlink:href="#p" />
<use x="360" y="300" xlink:href="#p" />
<use x="360" y="380" xlink:href="#p" />
<use x="360" y="420" xlink:href="#p" />
<use x="360" y="480" xlink:href="#p" />
<use x="360" y="520" xlink:href="#p" />
<use x="360" y="540" xlink:href="#p" />
<use x="360" y="580" xlink:href="#p" />
<use x="360" y="600" xlink:href="#p" />
<use x="380" y="60" xlink:href="#p" />
<use x="380" y="100" xlink:href="#p" />
<use x="380" y="200" xlink:href="#p" />
<use x="380" y="240" xlink:href="#p" />
<use x="380" y="300" xlink:href="#p" />
<use x="380" y="320" xlink:href="#p" />
<use x="380" y="360" xlink:href="#p" />
<use x="380" y="380" xlink:href="#p" />
<use x="380" y="440" xlink:href="#p" />
<use x="380" y="480" xlink:href="#p" />
<use x="380" y="600" xlink:href="#p" />
<use x="400" y="40" xlink:href="#p" />
<use x="400" y="80" xlink:href="#p" />
<use x="400" y="120" xlink:href="#p" />
<use x="400" y="140" xlink:href="#p" />
<use x="400" y="160" xlink:href="#p" />
<use x="400" y="240" xlink:href="#p" />
<use x="400" y="260" xlink:href="#p" />
<use x="400" y="300" xlink:href="#p" />
<use x="400" y="320" xlink:href="#p" />
<use x="400" y="360" xlink:href="#p" />
<use x="400" y="380" xlink:href="#p" />
<use x="400" y="460" xlink:href="#p" />
<use x="400" y="480" xlink:href="#p" />
<use x="400" y="500" xlink:href="#p" />
<use x="400" y="540" xlink:href="#p" />
<use x="400" y="560" xlink:href="#p" />
<use x="420" y="100" xlink:href="#p" />
<use x="420" y="120" xlink:href="#p" />
<use x="420" y="180" xlink:href="#p" />
<use x="420" y="220" xlink:href="#p" />
<use x="420" y="260" xlink:href="#p" />
<use x="420" y="280" xlink:href="#p" />
<use x="420" y="340" xlink:href="#p" />
<use x="420" y="360" xlink:href="#p" />
<use x="420" y="380" xlink:href="#p" />
<use x="420" y="400" xlink:href="#p" />
<use x="420" y="440" xlink:href="#p" />
<use x="420" y="480" xlink:href="#p" />
<use x="420" y="500" xlink:href="#p" />
<use x="420" y="520" xlink:href="#p" />
<use x="420" y="540" xlink:href="#p" />
<use x="420" y="560" xlink:href="#p" />
<use x="420" y="600" xlink:href="#p" />
<use x="440" y="100" xlink:href="#p" />
<use x="440" y="120" xlink:href="#p" />
<use x="440" y="140" xlink:href="#p" />
<use x="440" y="160" xlink:href="#p" />
<use x="440" y="240" xlink:href="#p" />
<use x="440" y="300" xlink:href="#p" />
<use x="440" y="320" xlink:href="#p" />
<use x="440" y="420" xlink:href="#p" />
<use x="440" y="440" xlink:href="#p" />
<use x="440" y="460" xlink:href="#p" />
<use x="440" y="480" xlink:href="#p" />
<use x="440" y="500" xlink:href="#p" />
<use x="440" y="520" xlink:href="#p" />
<use x="440" y="540" xlink:href="#p" />
<use x="440" y="560" xlink:href="#p" />
<use x="460" y="220" xlink:href="#p" />
<use x="460" y="260" xlink:href="#p" />
<use x="460" y="320" xlink:href="#p" />
<use x="460" y="360" xlink:href="#p" />
<use x="460" y="440" xlink:href="#p" />
<use x="460" y="520" xlink:href="#p" />
<use x="460" y="540" xlink:href="#p" />
<use x="460" y="560" xlink:href="#p" />
<use x="480" y="40" xlink:href="#p" />
<use x="480" y="60" xlink:href="#p" />
<use x="480" y="80" xlink:href="#p" />
<use x="480" y="100" xlink:href="#p" />
<use x="480" y="120" xlink:href="#p" />
<use x="480" y="140" xlink:href="#p" />
<use x="480" y="160" xlink:href="#p" />
<use x="480" y="280" xlink:href="#p" />
<use x="480" y="300" xlink:href="#p" />
<use x="480" y="380" xlink:href="#p" />
<use x="480" y="420" xlink:href="#p" />
<use x="480" y="440" xlink:href="#p" />
<use x="480" y="480" xlink:href="#p" />
<use x="480" y="520" xlink:href="#p" />
<use x="480" y="560" xlink:href="#p" />
<use x="480" y="580" xlink:href="#p" />
<use x="480" y="600" xlink:href="#p" />
<use x="500" y="40" xlink:href="#p" />
<use x="500" y="160" xlink:href="#p" />
<use x="500" y="220" xlink:href="#p" />
<use x="500" y="280" xlink:href="#p" />
<use x="500" y="300" xlink:href="#p" />
<use x="500" y="340" xlink:href="#p" />
<use x="500" y="360" xlink:href="#p" />
<use x="500" y="380" xlink:href="#p" />
<use x="500" y="440" xlink:href="#p" />
<use x="500" y="520" xlink:href="#p" />
<use x="500" y="560" xlink:href="#p" />
<use x="500" y="580" xlink:href="#p" />
<use x="500" y="600" xlink:href="#p" />
<use x="520" y="40" xlink:href="#p" />
<use x="520" y="80" xlink:href="#p" />
<use x="520" y="100" xlink:href="#p" />
<use x="520" y="120" xlink:href="#p" />
<use x="520" y="160" xlink:href="#p" />
<use x="520" y="200" xlink:href="#p" />
<use x="520" y="220" xlink:href="#p" />
<use x="520" y="240" xlink:href="#p" />
<use x="520" y="300" xlink:href="#p" />
<use x="520" y="320" xlink:href="#p" />
<use x="520" y="340" xlink:href="#p" />
<use x="520" y="380" xlink:href="#p" />
<use x="520" y="400" xlink:href="#p" />
<use x="520" y="440" xlink:href="#p" />
<use x="520" y="460" xlink:href="#p" />
<use x="520" y="480" xlink:href="#p" />
<use x="520" y="500" xlink:href="#p" />
<use x="520" y="520" xlink:href="#p" />
<use x="520" y="560" xlink:href="#p" />
<use x="520" y="600" xlink:href="#p" />
<use x="540" y="40" xlink:href="#p" />
<use x="540" y="80" xlink:href="#p" />
<use x="540" y="100" xlink:href="#p" />
<use x="540" y="120" xlink:href="#p" />
<use x="540" y="160" xlink:href="#p" />
<use x="540" y="200" xlink:href="#p" />
<use x="540" y="260" xlink:href="#p" />
<use x="540" y="320" xlink:href="#p" />
<use x="540" y="360" xlink:href="#p" />
<use x="540" y="400" xlink:href="#p" />
<use x="540" y="460" xlink:href="#p" />
<use x="540" y="480" xlink:href="#p" />
<use x="540" y="520" xlink:href="#p" />
<use x="540" y="540" xlink:href="#p" />
<use x="540" y="560" xlink:href="#p" />
<use x="540" y="580" xlink:href="#p" />
<use x="560" y="40" xlink:href="#p" />
<use x="560" y="80" xlink:href="#p" />
<use x="560" y="100" xlink:href="#p" />
<use x="560" y="120" xlink:href="#p" />
<use x="560" y="160" xlink:href="#p" />
<use x="560" y="220" xlink:href="#p" />
<use x="560" y="320" xlink:href="#p" />
<use x="560" y="340" xlink:href="#p" />
<use x="560" y="360" xlink:href="#p" />
<use x="560" y="380" xlink:href="#p" />
<use x="560" y="440" xlink:href="#p" />
<use x="560" y="480" xlink:href="#p" />
<use x="560" y="540" xlink:href="#p" />
<use x="560" y="560" xlink:href="#p" />
<use x="560" y="580" xlink:href="#p" />
<use x="560" y="600" xlink:href="#p" />
<use x="580" y="40" xlink:href="#p" />
<use x="580" y="160" xlink:href="#p" />
<use x="580" y="220" xlink:href="#p" />
<use x="580" y="300" xlink:href="#p" />
<use x="580" y="380" xlink:href="#p" />
<use x="580" y="440" xlink:href="#p" />
<use x="580" y="500" xlink:href="#p" />
<use x="580" y="520" xlink:href="#p" />
<use x="580" y="560" xlink:href="#p" />
<use x="600" y="40" xlink:href="#p" />
<use x="600" y="60" xlink:href="#p" />
<use x="600" y="80" xlink:href="#p" />
<use x="600" y="100" xlink:href="#p" />
<use x="600" y="120" xlink:href="#p" />
<use x="600" y="140" xlink:href="#p" />
<use x="600" y="160" xlink:href="#p" />
<use x="600" y="280" xlink:href="#p" />
<use x="600" y="300" xlink:href="#p" />
<use x="600" y="340" xlink:href="#p" />
<use x="600" y="380" xlink:href="#p" />
<use x="600" y="400" xlink:href="#p" />
<use x="600" y="440" xlink:href="#p" />
<use x="600" y="540" xlink:href="#p" />
<use x="600" y="580" xlink:href="#p" />
</g>

</svg>