<?xml version="1.0" standalone="no"?>
<!DOCTYPE svg PUBLIC "-//W3C//DTD SVG 20010904//EN"
 "http://www.w3.org/TR/2001/REC-SVG-20010904/DTD/svg10.dtd">
<svg version="1.0" xmlns="http://www.w3.org/2000/svg"
 width="16.000000pt" height="16.000000pt" viewBox="0 0 16.000000 16.000000"
 preserveAspectRatio="xMidYMid meet">
<metadata>
Created by potrace 1.11, written by Peter Selinger 2001-2013
</metadata>
<g transform="translate(0.000000,16.000000) scale(0.003125,-0.003125)"
fill="#000000" stroke="none">
<path d="M2347 5023 c-4 -3 -7 -165 -7 -360 l0 -353 55 0 55 0 0 360 0 360
-48 0 c-27 0 -52 -3 -55 -7z"/>
<path d="M2500 4670 l0 -360 60 0 60 0 0 360 0 360 -60 0 -60 0 0 -360z"/>
<path d="M2243 5013 c-10 -4 -13 -84 -13 -354 l0 -349 25 0 25 0 0 355 c0 365
0 364 -37 348z"/>
<path d="M2840 4665 l0 -355 25 0 25 0 0 349 c0 366 1 361 -41 361 -5 0 -9
-146 -9 -355z"/>
<path d="M2950 4655 l0 -345 30 0 30 0 0 339 c0 300 -2 340 -16 345 -45 17
-44 26 -44 -339z"/>
<path d="M1960 4961 l-65 -17 -3 -317 -2 -317 85 0 85 0 0 335 c0 382 12 345
-100 316z"/>
<path d="M3120 4640 l0 -330 55 0 55 0 -2 317 -3 317 -25 6 c-14 4 -37 10 -52
14 l-28 6 0 -330z"/>
<path d="M3280 4616 l0 -306 115 0 115 0 -2 268 -3 267 -82 33 c-44 17 -95 35
-112 38 l-31 7 0 -307z"/>
<path d="M1653 4860 l-43 -19 0 -266 0 -265 60 0 60 0 0 285 c0 321 5 303 -77
265z"/>
<path d="M1522 4804 c-22 -15 -22 -18 -22 -255 l0 -239 30 0 30 0 0 255 c0
140 -3 255 -8 255 -4 0 -18 -7 -30 -16z"/>
<path d="M3560 4565 l0 -255 55 0 55 0 0 230 0 230 -50 25 c-27 14 -52 25 -55
25 -3 0 -5 -115 -5 -255z"/>
<path d="M3730 4526 l0 -216 25 0 25 0 -2 201 c-3 196 -4 202 -25 217 l-23 14
0 -216z"/>
<path d="M1298 4689 c-16 -9 -18 -29 -18 -194 l0 -185 30 0 30 0 0 195 c0 204
-1 208 -42 184z"/>
<path d="M3900 4470 l0 -160 110 0 110 0 0 83 c0 74 -3 86 -22 104 -34 31
-179 133 -189 133 -5 0 -9 -72 -9 -160z"/>
<path d="M1080 4542 l-75 -58 -3 -87 -3 -87 86 0 85 0 0 145 c0 80 -3 145 -7
145 -5 0 -42 -26 -83 -58z"/>
<path d="M850 4345 l-34 -35 37 0 c36 0 37 1 37 35 0 19 -1 35 -3 35 -2 0 -18
-16 -37 -35z"/>
<path d="M4230 4347 c0 -34 2 -37 30 -37 17 0 30 4 30 8 0 5 -13 21 -30 37
l-30 29 0 -37z"/>
<path d="M792 4288 c-9 -9 -12 -407 -12 -1729 0 -1514 2 -1718 15 -1729 13
-11 15 182 15 1729 0 957 -1 1741 -3 1741 -2 0 -8 -5 -15 -12z"/>
<path d="M4341 2560 l0 -1715 54 58 55 58 0 1599 0 1599 -55 58 -54 58 0
-1715z"/>
<path d="M691 4181 l-21 -29 0 -1594 0 -1593 25 -30 24 -30 1 1653 c0 908 -2
1652 -4 1652 -3 0 -14 -13 -25 -29z"/>
<path d="M1020 3730 l0 -370 370 0 370 0 0 370 0 370 -370 0 -370 0 0 -370z
m640 -5 l0 -265 -265 0 -265 0 0 265 0 265 265 0 265 0 0 -265z"/>
<path d="M1237 3883 c-4 -3 -7 -75 -7 -160 l0 -153 160 0 160 0 0 160 0 160
-153 0 c-85 0 -157 -3 -160 -7z"/>
<path d="M1980 4045 l0 -55 105 0 105 0 0 -50 0 -50 -105 0 -105 0 0 -55 0
-55 -55 0 -55 0 0 -105 0 -105 55 0 55 0 0 -55 0 -55 -55 0 -55 0 0 -50 0 -50
55 0 55 0 0 -110 0 -110 50 0 50 0 0 -50 0 -50 -50 0 -50 0 0 -55 0 -55 50 0
50 0 0 -50 0 -50 -105 0 -105 0 0 -55 0 -55 -55 0 -55 0 0 55 0 55 -50 0 -50
0 0 -55 0 -55 -55 0 -55 0 0 -55 0 -55 -210 0 -210 0 0 55 0 55 160 0 160 0 0
55 0 55 50 0 50 0 0 50 0 50 105 0 105 0 0 55 0 55 55 0 55 0 0 105 0 105
-160 0 -160 0 0 -55 0 -55 -50 0 -50 0 0 -50 0 -50 -55 0 -55 0 0 50 0 50 -55
0 -55 0 0 55 0 55 -105 0 -105 0 0 -210 0 -210 55 0 55 0 0 -55 0 -55 -55 0
-55 0 0 -105 0 -105 105 0 105 0 0 -55 0 -55 -105 0 -105 0 0 -55 0 -55 160 0
160 0 0 110 0 110 105 0 105 0 0 50 0 50 55 0 55 0 0 -50 0 -50 50 0 50 0 0
-55 0 -55 -155 0 -155 0 0 -55 0 -55 155 0 155 0 0 -50 0 -50 -50 0 -50 0 0
-55 0 -55 105 0 105 0 0 55 0 55 105 0 105 0 0 -55 0 -55 55 0 55 0 0 -50 0
-50 -160 0 -160 0 0 -215 0 -215 55 0 55 0 0 55 0 55 50 0 50 0 0 50 0 50 55
0 55 0 0 55 0 55 49 0 50 0 3 -52 3 -53 53 -3 52 -3 0 -50 0 -49 -55 0 -55 0
0 -55 0 -55 -105 0 -105 0 0 -105 0 -105 -50 0 -50 0 0 -55 0 -55 -55 0 -55 0
0 -105 0 -105 55 0 55 0 0 105 0 105 105 0 105 0 0 -105 0 -105 50 0 50 0 0
105 0 105 55 0 55 0 0 55 0 55 -105 0 -105 0 0 55 0 55 160 0 160 0 0 105 0
105 50 0 50 0 0 -320 0 -320 160 0 160 0 0 55 0 55 -50 0 -50 0 0 50 0 50 -55
0 -55 0 0 55 0 55 55 0 55 0 0 105 0 105 -55 0 -55 0 0 55 0 55 105 0 105 0 0
-55 0 -55 55 0 55 0 0 -50 0 -50 -55 0 -55 0 0 -110 0 -110 215 0 215 0 0
-105 0 -105 155 0 155 0 0 55 0 55 55 0 55 0 0 -55 0 -55 55 0 55 0 0 105 0
105 50 0 50 0 0 -50 0 -50 55 0 55 0 0 50 0 50 -55 0 -55 0 0 55 0 55 55 0 55
0 0 55 0 55 -55 0 -55 0 0 105 0 105 -50 0 -50 0 0 50 0 50 -55 0 -55 0 0 55
0 55 160 0 160 0 0 55 0 55 -160 0 -160 0 0 -55 0 -55 -55 0 -55 0 0 55 0 55
-105 0 -105 0 0 50 0 50 -50 0 -50 0 0 -50 0 -50 -55 0 -55 0 0 50 0 50 -55 0
-55 0 0 215 0 215 110 0 110 0 0 50 0 50 105 0 105 0 0 -50 0 -50 -55 0 -55 0
0 -110 0 -110 -50 0 -50 0 0 55 0 55 -55 0 -55 0 0 -55 0 -55 55 0 55 0 0 -50
0 -50 105 0 105 0 0 -55 0 -55 105 0 105 0 0 55 0 55 105 0 105 0 0 -55 0 -55
55 0 55 0 0 105 0 105 -105 0 -105 0 0 160 0 160 105 0 105 0 0 110 0 110 -55
0 -55 0 0 -55 0 -55 -50 0 -50 0 0 -55 0 -55 -110 0 -110 0 0 55 0 55 -50 0
-50 0 0 55 0 55 -105 0 -105 0 0 50 0 50 -55 0 -55 0 0 55 0 55 55 0 55 0 0
50 0 50 -55 0 -55 0 0 -50 0 -50 -55 0 -55 0 0 50 0 50 -50 0 -50 0 0 -50 0
-50 -105 0 -105 0 0 50 0 50 50 0 50 0 0 55 0 55 -50 0 -50 0 0 210 0 210 50
0 50 0 0 -155 0 -155 55 0 55 0 0 -55 0 -55 50 0 50 0 0 55 0 55 55 0 55 0 0
210 0 210 -105 0 -105 0 0 55 0 55 -55 0 -55 0 0 50 0 50 55 0 55 0 0 55 0 55
-55 0 -55 0 0 -55 0 -55 -50 0 -50 0 0 -50 0 -50 50 0 50 0 0 -55 0 -55 -50 0
-50 0 0 -55 0 -55 -55 0 -55 0 0 -210 0 -210 55 0 55 0 0 -55 0 -55 -110 0
-110 0 0 160 0 160 -50 0 -50 0 0 -105 0 -105 -55 0 -55 0 0 105 0 105 -55 0
-56 0 3 -157 3 -158 108 -3 107 -3 0 -104 0 -105 105 0 105 0 0 -49 0 -50 -52
-3 -53 -3 -3 -107 -3 -108 -49 0 -50 0 0 -50 0 -50 105 0 105 0 0 50 0 50 55
0 55 0 0 -50 0 -50 105 0 105 0 0 -55 0 -55 -104 0 -105 0 -3 -52 -3 -53 -52
-3 -53 -3 0 55 0 56 -160 0 -160 0 0 56 0 55 -52 -3 -53 -3 0 -105 0 -105 108
-3 107 -3 0 -104 0 -105 50 0 50 0 0 -50 0 -50 110 0 110 0 0 -55 0 -55 50 0
50 0 0 -55 0 -55 -105 0 -105 0 0 55 0 55 -215 0 -215 0 0 105 0 105 55 0 55
0 0 55 0 55 -55 0 -55 0 0 -55 0 -55 -50 0 -50 0 0 55 0 55 -55 0 -55 0 0 50
0 50 -105 0 -105 0 0 55 0 55 160 0 160 0 0 55 0 55 -105 0 -105 0 0 50 0 50
-55 0 -55 0 0 55 0 55 105 0 105 0 0 -55 0 -55 55 0 55 0 0 110 0 110 50 0 50
0 0 50 0 50 55 0 55 0 0 55 0 55 -105 0 -105 0 0 105 0 105 -55 0 -55 0 0 55
0 55 55 0 55 0 0 155 0 155 50 0 50 0 0 -50 0 -50 55 0 55 0 0 50 0 50 55 0
55 0 0 55 0 55 50 0 50 0 0 160 0 160 -105 0 -105 0 0 -55 0 -55 -55 0 -55 0
0 55 0 55 -155 0 -155 0 0 -55z m530 -160 l0 -105 -55 0 -55 0 0 -55 0 -55
-55 0 -56 0 3 108 3 107 53 3 52 3 0 50 0 49 55 0 55 0 0 -105z m-430 -210 l0
-105 -50 0 -50 0 0 105 0 105 50 0 50 0 0 -105z m960 50 l0 -55 -55 0 -55 0 0
55 0 55 55 0 55 0 0 -55z m100 -260 l0 -105 -50 0 -50 0 0 105 0 105 50 0 50
0 0 -105z m-1060 -55 l0 -50 -50 0 -50 0 0 50 0 50 50 0 50 0 0 -50z m-320
-320 l0 -50 -50 0 -50 0 0 50 0 50 50 0 50 0 0 -50z m430 -105 l0 -55 -55 0
-55 0 0 55 0 55 55 0 55 0 0 -55z m950 0 l0 -55 55 0 55 0 0 -50 0 -50 55 0
55 0 0 -110 0 -110 -55 0 -55 0 0 55 0 55 -55 0 -55 0 0 -105 0 -105 -50 0
-50 0 0 105 0 105 -105 0 -105 0 0 105 0 105 50 0 50 0 0 -49 0 -50 53 -3 52
-3 3 -52 3 -53 50 0 49 0 0 105 0 105 -50 0 -50 0 0 55 0 55 50 0 50 0 0 -55z
m-1690 -105 l0 -50 -110 0 -110 0 0 50 0 50 110 0 110 0 0 -50z m310 -215 l0
-55 55 0 55 0 0 -50 0 -50 -55 0 -55 0 0 50 0 50 -50 0 -50 0 0 55 0 55 50 0
50 0 0 -55z m2020 -210 l0 -55 -55 0 -55 0 0 -55 0 -55 55 0 55 0 0 -50 0 -50
-55 0 -55 0 0 50 0 50 -50 0 -50 0 0 55 0 55 50 0 50 0 0 55 0 55 55 0 55 0 0
-55z m-740 -320 l0 -55 50 0 50 0 0 -50 0 -50 -50 0 -50 0 0 -55 0 -55 50 0
50 0 0 -55 0 -55 -50 0 -50 0 0 55 0 55 -55 0 -55 0 0 55 0 55 -50 0 -50 0 0
50 0 50 -55 0 -55 0 0 55 0 55 160 0 160 0 0 -55z m-960 -320 l0 -55 -50 0
-50 0 0 55 0 55 50 0 50 0 0 -55z m1490 -105 l0 -160 -160 0 -160 0 0 160 0
160 160 0 160 0 0 -160z m320 -155 l0 -105 50 0 50 0 0 -55 0 -55 -50 0 -50 0
0 55 0 55 -55 0 -55 0 0 50 0 50 -55 0 -55 0 0 55 0 55 110 0 110 0 0 -105z
m-220 -160 l0 -55 -155 0 -155 0 0 55 0 55 155 0 155 0 0 -55z m0 -215 l0 -50
-50 0 -50 0 0 50 0 50 50 0 50 0 0 -50z"/>
<path d="M3360 1710 l0 -50 50 0 50 0 0 50 0 50 -50 0 -50 0 0 -50z"/>
<path d="M3360 3730 l0 -370 370 0 370 0 0 370 0 370 -370 0 -370 0 0 -370z
m630 -5 l0 -265 -265 0 -265 0 0 265 0 265 265 0 265 0 0 -265z"/>
<path d="M3570 3730 l0 -160 160 0 161 0 -3 158 -3 157 -157 3 -158 3 0 -161z"/>
<path d="M538 3983 c-28 -33 -95 -138 -122 -190 l-26 -52 0 -1181 0 -1181 26
-52 c30 -59 118 -192 134 -202 7 -4 10 461 10 1434 0 793 -2 1441 -3 1441 -2
0 -11 -8 -19 -17z"/>
<path d="M4621 2560 c0 -1232 1 -1363 15 -1345 26 33 93 151 124 217 l30 63 0
1065 0 1065 -30 63 c-31 66 -98 184 -124 217 -14 18 -15 -113 -15 -1345z"/>
<path d="M250 3445 l-25 -60 0 -825 0 -825 25 -60 25 -60 3 473 c1 259 1 685
0 945 l-3 472 -25 -60z"/>
<path d="M4841 2560 c0 -653 3 -940 10 -927 6 9 19 43 30 74 18 54 19 90 19
853 0 763 -1 799 -19 853 -11 31 -24 65 -30 74 -7 13 -10 -274 -10 -927z"/>
<path d="M3570 3195 l0 -55 -55 0 -55 0 0 -50 0 -50 55 0 55 0 0 -55 0 -55 50
0 50 0 0 -50 0 -50 55 0 55 0 0 50 0 50 -55 0 -55 0 0 105 0 105 55 0 55 0 0
-50 0 -50 105 0 105 0 0 50 0 50 -105 0 -105 0 0 55 0 55 -105 0 -105 0 0 -55z"/>
<path d="M147 3108 c-42 -171 -52 -277 -52 -553 0 -233 4 -287 22 -395 50
-281 51 -274 52 398 1 336 -1 612 -3 612 -2 0 -11 -28 -19 -62z"/>
<path d="M4952 2560 c0 -674 1 -681 51 -400 19 109 22 161 22 400 0 239 -3
291 -22 400 -50 281 -51 274 -51 -400z"/>
<path d="M2292 2668 l3 -53 53 -3 52 -3 0 55 0 56 -56 0 -55 0 3 -52z"/>
<path d="M3990 2455 l0 -55 55 0 55 0 0 55 0 55 -55 0 -55 0 0 -55z"/>
<path d="M1230 2135 l0 -55 -50 0 -50 0 0 -105 0 -105 160 0 160 0 0 55 0 55
-110 0 -110 0 0 50 0 50 110 0 110 0 0 55 0 55 -110 0 -110 0 0 -55z"/>
<path d="M1660 1925 l0 -55 50 0 50 0 0 55 0 55 -50 0 -50 0 0 -55z"/>
<path d="M1020 1390 l0 -370 370 0 370 0 0 370 0 370 -370 0 -370 0 0 -370z
m640 5 l0 -265 -265 0 -265 0 0 265 0 265 265 0 265 0 0 -265z"/>
<path d="M1232 1393 l3 -158 158 -3 157 -3 0 161 0 160 -160 0 -161 0 3 -157z"/>
<path d="M3040 1075 l0 -55 50 0 50 0 0 55 0 55 -50 0 -50 0 0 -55z"/>
<path d="M850 775 c19 -19 35 -35 37 -35 2 0 3 16 3 35 0 34 -1 35 -37 35
l-37 0 34 -35z"/>
<path d="M1002 723 l3 -87 75 -58 c41 -32 78 -58 83 -58 4 0 7 65 7 145 l0
145 -85 0 -86 0 3 -87z"/>
<path d="M1280 625 c0 -172 1 -185 19 -195 40 -21 41 -16 41 185 l0 195 -30 0
-30 0 0 -185z"/>
<path d="M1500 571 c0 -237 0 -240 22 -255 12 -9 26 -16 30 -16 5 0 8 115 8
255 l0 255 -30 0 -30 0 0 -239z"/>
<path d="M1610 545 l0 -266 43 -19 c82 -38 77 -56 77 265 l0 285 -60 0 -60 0
0 -265z"/>
<path d="M1892 493 l3 -317 70 -18 c39 -9 76 -18 83 -18 9 0 12 74 12 335 l0
335 -85 0 -85 0 2 -317z"/>
<path d="M2230 461 c0 -366 -1 -361 41 -361 5 0 9 146 9 355 l0 355 -25 0 -25
0 0 -349z"/>
<path d="M2342 453 l3 -358 53 -3 52 -3 0 360 0 361 -55 0 -55 0 2 -357z"/>
<path d="M2500 450 l0 -360 60 0 60 0 0 360 0 360 -60 0 -60 0 0 -360z"/>
<path d="M2840 455 c0 -209 4 -355 9 -355 42 0 41 -5 41 361 l0 349 -25 0 -25
0 0 -355z"/>
<path d="M2950 465 c0 -365 -1 -356 44 -339 14 5 16 45 16 345 l0 339 -30 0
-30 0 0 -345z"/>
<path d="M3120 480 l0 -330 28 6 c15 4 38 10 52 14 l25 6 3 317 2 317 -55 0
-55 0 0 -330z"/>
<path d="M3280 504 l0 -306 31 6 c17 3 68 21 112 38 l82 33 3 268 2 267 -115
0 -115 0 0 -306z"/>
<path d="M3560 555 c0 -140 2 -255 5 -255 3 0 28 11 55 25 l50 25 0 230 0 230
-55 0 -55 0 0 -255z"/>
<path d="M3730 594 l0 -216 23 14 c21 15 22 21 25 217 l2 201 -25 0 -25 0 0
-216z"/>
<path d="M3900 650 c0 -88 4 -160 9 -160 10 0 155 102 189 133 19 18 22 30 22
104 l0 83 -110 0 -110 0 0 -160z"/>
<path d="M4230 773 l0 -37 30 29 c17 16 30 32 30 37 0 4 -13 8 -30 8 -28 0
-30 -3 -30 -37z"/>
</g>
</svg>
